:SAMPLES-PER-SECOND 30
:FULLY-SPECIFIED
:DEGREES
962
root  45.1904 38.0144 2.66015 129.216 81.9796 131.038
RightUpLeg  -20.7054 -9.04122 -13.4444
RightLeg  16.6781 4.70671 1.21114
RightFoot  5.21774 -0.587748 4.17995
RightToes  -5.8209e-011 0 -3.6325e-017
Spine  13.4454 -2.01776 1.76808
Spine1  8.00224 -0.646598 -5.21412
HEad  -10.7694 19.3524 28.4122
LeftShoulder1  0.0549002 3.37123 -35.2109
LeftArm  -0.408788 5.54918 -36.2249
LeftForeArm  22.6267 -7.53647 -9.86376
LeftHand  0.0476694 7.861 3.97599
RightShoulder  -0.333995 -4.44296 28.3795
RightArm  47.8277 -15.2079 58.232
RightForeArm  -60.6686 57.2742 168.129
RightHand  -1.17107 -14.1963 13.7725
LeftUpLeg  3.3542 6.03384 -1.81935
LeftLeg  19.0051 0.77283 0.636706
LeftFoot  -17.5996 0.0289984 -1.39376
LeftToes  -8.31281e-010 4.41007e-011 3.74621e-011
963
root  45.6395 37.6043 2.88195 134.43 82.8427 136.314
RightUpLeg  -23.0659 -7.43114 -12.3599
RightLeg  22.6382 2.67455 1.04783
RightFoot  2.87125 -0.504586 4.21355
RightToes  -5.8209e-011 0 -3.6325e-017
Spine  16.4218 -2.30377 5.29309
Spine1  6.44089 -0.165029 -6.4118
HEad  -11.9956 18.7633 26.9607
LeftShoulder1  0.0579604 3.36527 -35.1437
LeftArm  5.27242 3.35607 -37.7288
LeftForeArm  12.7795 -14.745 -7.87297
LeftHand  0.0442628 6.95938 5.40638
RightShoulder  -0.313312 -4.37535 28.5099
RightArm  48.6532 -13.222 58.8658
RightForeArm  -58.3784 57.7734 167.714
RightHand  -1.14401 -13.4138 14.8768
LeftUpLeg  0.657622 5.14153 -0.243109
LeftLeg  26.1475 1.16885 0.963089
LeftFoot  -19.996 -0.118838 -3.07848
LeftToes  -8.31281e-010 4.41007e-011 3.74621e-011
964
root  46.068 37.1535 3.11985 144.206 83.1631 146.089
RightUpLeg  -24.9909 -9.24748 -10.7065
RightLeg  27.6033 3.67651 1.86118
RightFoot  1.0649 -0.401265 3.71628
RightToes  -5.8209e-011 0 -3.6325e-017
Spine  18.0329 -2.60246 8.22411
Spine1  7.10369 0.13119 -6.34422
HEad  -14.1015 18.267 25.7942
LeftShoulder1  0.261303 2.85213 -34.6059
LeftArm  9.85722 1.29133 -40.1566
LeftForeArm  4.67301 -22.5707 -5.14855
LeftHand  -0.0198125 5.54718 6.55673
RightShoulder  -0.132853 -3.88032 26.9708
RightArm  48.3442 -10.3449 61.3939
RightForeArm  -57.9411 59.1923 166.878
RightHand  -0.883019 -11.069 15.9478
LeftUpLeg  -4.29672 5.26007 2.04158
LeftLeg  37.0525 -0.422894 -0.0611421
LeftFoot  -19.8575 -0.422741 -7.49864
LeftToes  -8.31281e-010 4.41007e-011 3.74621e-011
965
root  46.3714 36.6497 3.38032 156.699 82.463 158.196
RightUpLeg  -27.4524 -12.0401 -9.10715
RightLeg  32.8541 4.38264 2.78688
RightFoot  -1.42629 -0.191841 2.1299
RightToes  -5.8209e-011 0 -3.6325e-017
Spine  20.4206 -3.23331 10.4598
Spine1  6.04813 -0.109133 -5.64064
HEad  -15.5389 17.7623 24.9348
LeftShoulder1  0.614866 1.9311 -32.8865
LeftArm  6.06204 0.73556 -42.0622
LeftForeArm  7.58425 -30.8369 -6.24836
LeftHand  -0.140985 3.6263 8.6568
RightShoulder  -0.031658 -3.56896 26.6803
RightArm  48.9827 -7.32529 62.148
RightForeArm  -61.1828 60.5837 166.241
RightHand  -0.612916 -9.60439 14.5411
LeftUpLeg  -11.6906 5.94149 4.52619
LeftLeg  49.6852 -2.45752 -2.61325
LeftFoot  -14.71 -0.248545 -11.119
LeftToes  -8.31281e-010 4.41007e-011 3.74621e-011
966
root  46.6058 36.1356 3.63544 165.222 82.0104 166.223
RightUpLeg  -29.9535 -13.5983 -7.68196
RightLeg  37.382 4.53093 3.43253
RightFoot  -3.79728 -0.136563 1.66739
RightToes  -5.8209e-011 0 -3.6325e-017
Spine  22.6412 -3.08836 11.3728
Spine1  5.37553 -0.238975 -2.97008
HEad  -17.458 17.5222 23.4397
LeftShoulder1  0.640671 1.90882 -34.0669
LeftArm  4.49403 -1.68114 -42.4415
LeftForeArm  14.2632 -39.5747 -8.36719
LeftHand  -0.183515 3.1304 8.89099
RightShoulder  0.164301 -2.94282 24.5171
RightArm  48.7119 -4.15707 63.6829
RightForeArm  -64.723 61.5708 165.834
RightHand  -0.191069 -6.70381 12.876
LeftUpLeg  -19.8265 6.16216 6.41113
LeftLeg  60.9123 -2.27198 -3.79054
LeftFoot  -5.21548 0.496801 -9.21152
LeftToes  -8.31281e-010 4.41007e-011 3.74621e-011
967
root  46.9255 35.7036 3.84353 168.109 82.608 168.955
RightUpLeg  -31.8206 -13.4607 -6.66192
RightLeg  41.2448 4.39613 3.81849
RightFoot  -5.67204 -0.0738566 0.713165
RightToes  -5.8209e-011 0 -3.6325e-017
Spine  25.0504 -2.83206 12.0189
Spine1  4.64866 0.149874 -2.17439
HEad  -19.0392 18.051 22.8841
LeftShoulder1  0.742304 1.63513 -33.6705
LeftArm  3.15004 -3.18374 -43.5198
LeftForeArm  21.9988 -47.8307 -10.7716
LeftHand  -0.210561 2.8117 9.0776
RightShoulder  0.324536 -2.38188 23.2396
RightArm  49.2297 -1.09332 64.7862
RightForeArm  -68.2206 62.5852 165.32
RightHand  0.17933 -3.21388 11.5275
LeftUpLeg  -25.688 7.22653 7.78954
LeftLeg  67.4283 -1.82753 -4.12233
LeftFoot  -1.83104 0.418188 -4.67732
LeftToes  -8.31281e-010 4.41007e-011 3.74621e-011
968
root  47.2202 35.4433 4.04102 165.711 82.469 165.871
RightUpLeg  -33.5174 -13.0074 -6.73922
RightLeg  43.9173 3.79565 3.59065
RightFoot  -7.11157 -0.0492757 0.0523444
RightToes  -5.8209e-011 0 -3.6325e-017
Spine  26.3539 -2.70095 11.9939
Spine1  4.81197 0.330591 -2.27643
HEad  -21.0154 18.0656 22.6627
LeftShoulder1  0.958103 1.07218 -33.2973
LeftArm  2.5387 -5.74091 -44.1085
LeftForeArm  28.5743 -54.4695 -13.3631
LeftHand  -0.228441 2.62149 9.26892
RightShoulder  0.387284 -2.15759 22.9723
RightArm  49.7434 2.9098 65.1935
RightForeArm  -77.9838 64.1044 164.792
RightHand  0.451357 0.806893 8.13661
LeftUpLeg  -30.7763 7.28495 8.09768
LeftLeg  69.0737 -2.0077 -5.01747
LeftFoot  -4.21268 0.319952 -4.78203
LeftToes  -8.31281e-010 4.41007e-011 3.74621e-011
969
root  47.4626 35.2603 4.14699 164.708 81.7013 163.842
RightUpLeg  -35.0401 -12.727 -7.10981
RightLeg  45.7781 3.01276 2.98116
RightFoot  -8.41335 -0.0616826 0.191822
RightToes  -5.8209e-011 0 -3.6325e-017
Spine  28.0657 -3.22295 11.7432
Spine1  3.46929 -0.227228 -2.70364
HEad  -22.3202 18.6367 22.4602
LeftShoulder1  0.970257 1.01031 -33.0003
LeftArm  3.31332 -8.92626 -43.7292
LeftForeArm  31.3886 -58.3766 -15.484
LeftHand  -0.210003 3.08479 10.0906
RightShoulder  0.397021 -2.14426 23.6901
RightArm  51.329 6.84918 65.304
RightForeArm  -79.5827 64.3571 164.648
RightHand  0.759494 7.08653 6.7905
LeftUpLeg  -35.3673 5.91372 8.07717
LeftLeg  66.4167 -2.50581 -5.58404
LeftFoot  -6.56999 0.261236 -5.23739
LeftToes  -8.31281e-010 4.41007e-011 3.74621e-011
970
root  47.7397 35.1996 4.21421 163.2 81.2756 161.369
RightUpLeg  -36.006 -11.8582 -7.56092
RightLeg  46.7469 2.18741 2.15372
RightFoot  -9.33485 -0.0706064 0.405803
RightToes  -5.8209e-011 0 -3.6325e-017
Spine  29.061 -3.41262 11.6265
Spine1  3.15089 -0.238683 -3.91693
HEad  -24.0294 19.0813 23.1037
LeftShoulder1  1.23439 0.159982 -30.7887
LeftArm  3.10922 -11.5952 -45.9342
LeftForeArm  31.9982 -59.4916 -16.24
LeftHand  -0.247308 2.67265 10.2061
RightShoulder  0.264856 -2.63487 25.2776
RightArm  52.7832 10.5591 64.7502
RightForeArm  -89.8098 65.2215 164.356
RightHand  0.649073 8.89322 4.83995
LeftUpLeg  -37.9157 4.27507 8.24222
LeftLeg  59.6092 -3.71893 -6.28973
LeftFoot  -8.0366 0.195786 -5.31293
LeftToes  -8.31281e-010 4.41007e-011 3.74621e-011
971
root  48.0247 35.2105 4.22629 162.936 80.9057 160.146
RightUpLeg  -36.6458 -11.4717 -7.84242
RightLeg  47.1619 1.71171 1.63682
RightFoot  -9.97224 -0.0730238 0.472928
RightToes  -5.8209e-011 0 -3.6325e-017
Spine  29.8429 -3.2813 10.9372
Spine1  2.47871 -0.379042 -3.62506
HEad  -25.2006 20.2761 22.824
LeftShoulder1  1.296 -0.0272121 -30.7003
LeftArm  3.61741 -14.3564 -47.5676
LeftForeArm  29.5333 -58.6167 -15.9011
LeftHand  -0.290685 2.27463 10.6516
RightShoulder  0.406996 -2.14759 24.3046
RightArm  54.2076 12.1236 65.5753
RightForeArm  -93.8123 65.5188 164.171
RightHand  0.634904 4.34439 6.97375
LeftUpLeg  -38.7355 1.76272 8.85674
LeftLeg  49.7663 -6.10385 -7.18039
LeftFoot  -9.10772 0.213455 -8.02245
LeftToes  -8.31281e-010 4.41007e-011 3.74621e-011
972
root  48.3249 35.1976 4.12464 162.521 81.2989 159.212
RightUpLeg  -36.9253 -10.5812 -8.02984
RightLeg  47.5718 1.40129 1.29992
RightFoot  -10.5208 -0.0765535 0.711479
RightToes  -5.8209e-011 0 -3.6325e-017
Spine  30.6628 -3.1651 10.7993
Spine1  1.81683 -0.123904 -4.36244
HEad  -26.4384 21.9071 23.6545
LeftShoulder1  1.436 -0.5043 -29.7683
LeftArm  3.64879 -17.1849 -50.0244
LeftForeArm  28.1452 -56.0636 -14.3243
LeftHand  -0.302583 1.82029 9.69322
RightShoulder  0.394907 -2.16917 24.3883
RightArm  56.7741 14.3285 65.0903
RightForeArm  -82.3471 63.5451 165.406
RightHand  1.04381 5.81232 10.6986
LeftUpLeg  -38.0234 -0.985203 9.82992
LeftLeg  39.906 -10.3011 -8.73226
LeftFoot  -7.67365 0.336965 -8.97904
LeftToes  -8.31281e-010 4.41007e-011 3.74621e-011
